<mxfile host="65bd71144e">
    <diagram id="nOyQxEV6Mfie50_MuCpq" name="Page-1">
        <mxGraphModel dx="3117" dy="1752" grid="1" gridSize="10" guides="1" tooltips="1" connect="1" arrows="1" fold="1" page="1" pageScale="1" pageWidth="850" pageHeight="1100" math="0" shadow="0">
            <root>
                <mxCell id="0"/>
                <mxCell id="1" parent="0"/>
                <mxCell id="8" value="" style="rounded=0;whiteSpace=wrap;html=1;fontSize=14;movable=0;resizable=0;rotatable=0;deletable=0;editable=0;connectable=0;" vertex="1" parent="1">
                    <mxGeometry width="1920" height="1080" as="geometry"/>
                </mxCell>
                <mxCell id="9" value="" style="rounded=0;whiteSpace=wrap;html=1;fontSize=14;movable=0;resizable=0;rotatable=0;deletable=0;editable=0;connectable=0;" vertex="1" parent="1">
                    <mxGeometry width="1920" height="32" as="geometry"/>
                </mxCell>
                <mxCell id="13" value="&lt;font style=&quot;font-size: 18px;&quot;&gt;NX&lt;/font&gt;" style="rounded=0;whiteSpace=wrap;html=1;fontSize=16;movable=0;resizable=0;rotatable=0;deletable=0;editable=0;connectable=0;fontStyle=1" vertex="1" parent="1">
                    <mxGeometry width="32" height="32" as="geometry"/>
                </mxCell>
                <mxCell id="18" value="" style="shape=table;html=1;whiteSpace=wrap;startSize=0;container=1;collapsible=0;childLayout=tableLayout;fontSize=16;movable=0;resizable=0;rotatable=0;deletable=0;editable=0;connectable=0;" vertex="1" parent="1">
                    <mxGeometry x="32" width="300" height="32" as="geometry"/>
                </mxCell>
                <mxCell id="19" value="" style="shape=tableRow;horizontal=0;startSize=0;swimlaneHead=0;swimlaneBody=0;top=0;left=0;bottom=0;right=0;collapsible=0;dropTarget=0;fillColor=none;points=[[0,0.5],[1,0.5]];portConstraint=eastwest;fontSize=14;" vertex="1" parent="18">
                    <mxGeometry width="300" height="32" as="geometry"/>
                </mxCell>
                <mxCell id="20" value="File" style="shape=partialRectangle;html=1;whiteSpace=wrap;connectable=0;fillColor=none;top=0;left=0;bottom=0;right=0;overflow=hidden;fontSize=14;" vertex="1" parent="19">
                    <mxGeometry width="60" height="32" as="geometry">
                        <mxRectangle width="60" height="32" as="alternateBounds"/>
                    </mxGeometry>
                </mxCell>
                <mxCell id="38" value="Edit" style="shape=partialRectangle;html=1;whiteSpace=wrap;connectable=0;fillColor=none;top=0;left=0;bottom=0;right=0;overflow=hidden;fontSize=14;" vertex="1" parent="19">
                    <mxGeometry x="60" width="60" height="32" as="geometry">
                        <mxRectangle width="60" height="32" as="alternateBounds"/>
                    </mxGeometry>
                </mxCell>
                <mxCell id="37" value="View" style="shape=partialRectangle;html=1;whiteSpace=wrap;connectable=0;fillColor=none;top=0;left=0;bottom=0;right=0;overflow=hidden;fontSize=14;" vertex="1" parent="19">
                    <mxGeometry x="120" width="60" height="32" as="geometry">
                        <mxRectangle width="60" height="32" as="alternateBounds"/>
                    </mxGeometry>
                </mxCell>
                <mxCell id="36" value="Settings" style="shape=partialRectangle;html=1;whiteSpace=wrap;connectable=0;fillColor=none;top=0;left=0;bottom=0;right=0;overflow=hidden;fontSize=14;" vertex="1" parent="19">
                    <mxGeometry x="180" width="60" height="32" as="geometry">
                        <mxRectangle width="60" height="32" as="alternateBounds"/>
                    </mxGeometry>
                </mxCell>
                <mxCell id="35" value="Help" style="shape=partialRectangle;html=1;whiteSpace=wrap;connectable=0;fillColor=none;top=0;left=0;bottom=0;right=0;overflow=hidden;fontSize=14;" vertex="1" parent="19">
                    <mxGeometry x="240" width="60" height="32" as="geometry">
                        <mxRectangle width="60" height="32" as="alternateBounds"/>
                    </mxGeometry>
                </mxCell>
                <mxCell id="39" value="Navbar / Search Bar / Command Window" style="rounded=1;whiteSpace=wrap;html=1;fontSize=14;movable=0;resizable=0;rotatable=0;deletable=0;editable=0;connectable=0;" vertex="1" parent="1">
                    <mxGeometry x="720" width="480" height="32" as="geometry"/>
                </mxCell>
                <mxCell id="40" value="" style="shape=table;html=1;whiteSpace=wrap;startSize=0;container=1;collapsible=0;childLayout=tableLayout;fontSize=14;movable=0;resizable=0;rotatable=0;deletable=0;editable=0;connectable=0;" vertex="1" parent="1">
                    <mxGeometry x="1824" width="96" height="32" as="geometry"/>
                </mxCell>
                <mxCell id="41" value="" style="shape=tableRow;horizontal=0;startSize=0;swimlaneHead=0;swimlaneBody=0;top=0;left=0;bottom=0;right=0;collapsible=0;dropTarget=0;fillColor=none;points=[[0,0.5],[1,0.5]];portConstraint=eastwest;fontSize=14;" vertex="1" parent="40">
                    <mxGeometry width="96" height="32" as="geometry"/>
                </mxCell>
                <mxCell id="42" value="min" style="shape=partialRectangle;html=1;whiteSpace=wrap;connectable=0;fillColor=#1ba1e2;top=0;left=0;bottom=0;right=0;overflow=hidden;fontSize=14;fontColor=#ffffff;strokeColor=#006EAF;" vertex="1" parent="41">
                    <mxGeometry width="32" height="32" as="geometry">
                        <mxRectangle width="32" height="32" as="alternateBounds"/>
                    </mxGeometry>
                </mxCell>
                <mxCell id="43" value="max" style="shape=partialRectangle;html=1;whiteSpace=wrap;connectable=0;fillColor=#60a917;top=0;left=0;bottom=0;right=0;overflow=hidden;fontSize=14;fontColor=#ffffff;strokeColor=#2D7600;" vertex="1" parent="41">
                    <mxGeometry x="32" width="32" height="32" as="geometry">
                        <mxRectangle width="32" height="32" as="alternateBounds"/>
                    </mxGeometry>
                </mxCell>
                <mxCell id="44" value="exit" style="shape=partialRectangle;html=1;whiteSpace=wrap;connectable=0;fillColor=#a20025;top=0;left=0;bottom=0;right=0;overflow=hidden;fontSize=14;fontColor=#ffffff;strokeColor=#6F0000;" vertex="1" parent="41">
                    <mxGeometry x="64" width="32" height="32" as="geometry">
                        <mxRectangle width="32" height="32" as="alternateBounds"/>
                    </mxGeometry>
                </mxCell>
                <mxCell id="53" value="" style="shape=table;html=1;whiteSpace=wrap;startSize=0;container=1;collapsible=0;childLayout=tableLayout;fontSize=14;movable=0;resizable=0;rotatable=0;deletable=0;editable=0;connectable=0;fillColor=#f5f5f5;strokeColor=#666666;gradientColor=#b3b3b3;" vertex="1" parent="1">
                    <mxGeometry x="1200" width="96" height="32" as="geometry"/>
                </mxCell>
                <mxCell id="54" value="" style="shape=tableRow;horizontal=0;startSize=0;swimlaneHead=0;swimlaneBody=0;top=0;left=0;bottom=0;right=0;collapsible=0;dropTarget=0;fillColor=none;points=[[0,0.5],[1,0.5]];portConstraint=eastwest;fontSize=14;" vertex="1" parent="53">
                    <mxGeometry width="96" height="32" as="geometry"/>
                </mxCell>
                <mxCell id="55" value="" style="shape=partialRectangle;html=1;whiteSpace=wrap;connectable=0;fillColor=none;top=0;left=0;bottom=0;right=0;overflow=hidden;fontSize=14;" vertex="1" parent="54">
                    <mxGeometry width="32" height="32" as="geometry">
                        <mxRectangle width="32" height="32" as="alternateBounds"/>
                    </mxGeometry>
                </mxCell>
                <mxCell id="56" value="" style="shape=partialRectangle;html=1;whiteSpace=wrap;connectable=0;fillColor=none;top=0;left=0;bottom=0;right=0;overflow=hidden;fontSize=14;" vertex="1" parent="54">
                    <mxGeometry x="32" width="32" height="32" as="geometry">
                        <mxRectangle width="32" height="32" as="alternateBounds"/>
                    </mxGeometry>
                </mxCell>
                <mxCell id="57" value="" style="shape=partialRectangle;html=1;whiteSpace=wrap;connectable=0;fillColor=none;top=0;left=0;bottom=0;right=0;overflow=hidden;fontSize=14;" vertex="1" parent="54">
                    <mxGeometry x="64" width="32" height="32" as="geometry">
                        <mxRectangle width="32" height="32" as="alternateBounds"/>
                    </mxGeometry>
                </mxCell>
                <mxCell id="59" value="" style="shape=table;html=1;whiteSpace=wrap;startSize=0;container=1;collapsible=0;childLayout=tableLayout;fontSize=14;movable=0;resizable=0;rotatable=0;deletable=0;editable=0;connectable=0;fillColor=#dae8fc;strokeColor=#6c8ebf;swimlaneFillColor=none;fontColor=#000000;" vertex="1" parent="1">
                    <mxGeometry x="656" width="64" height="32" as="geometry"/>
                </mxCell>
                <mxCell id="60" value="" style="shape=tableRow;horizontal=0;startSize=0;swimlaneHead=0;swimlaneBody=0;top=0;left=0;bottom=0;right=0;collapsible=0;dropTarget=0;fillColor=none;points=[[0,0.5],[1,0.5]];portConstraint=eastwest;fontSize=14;" vertex="1" parent="59">
                    <mxGeometry width="64" height="32" as="geometry"/>
                </mxCell>
                <mxCell id="61" value="&lt;font color=&quot;#000000&quot;&gt;&amp;lt;-&lt;/font&gt;" style="shape=partialRectangle;html=1;whiteSpace=wrap;connectable=0;fillColor=none;top=0;left=0;bottom=0;right=0;overflow=hidden;fontSize=14;" vertex="1" parent="60">
                    <mxGeometry width="32" height="32" as="geometry">
                        <mxRectangle width="32" height="32" as="alternateBounds"/>
                    </mxGeometry>
                </mxCell>
                <mxCell id="62" value="&lt;font color=&quot;#171111&quot;&gt;-&amp;gt;&lt;/font&gt;" style="shape=partialRectangle;html=1;whiteSpace=wrap;connectable=0;fillColor=none;top=0;left=0;bottom=0;right=0;overflow=hidden;fontSize=14;" vertex="1" parent="60">
                    <mxGeometry x="32" width="32" height="32" as="geometry">
                        <mxRectangle width="32" height="32" as="alternateBounds"/>
                    </mxGeometry>
                </mxCell>
                <mxCell id="64" value="" style="rounded=0;whiteSpace=wrap;html=1;strokeColor=#FFFFFF;fontSize=16;fontColor=#000000;movable=0;resizable=0;rotatable=0;deletable=0;editable=0;connectable=0;" vertex="1" parent="1">
                    <mxGeometry y="32" width="48" height="1024" as="geometry"/>
                </mxCell>
                <mxCell id="65" value="" style="shape=table;html=1;whiteSpace=wrap;startSize=0;container=1;collapsible=0;childLayout=tableLayout;strokeColor=#FFFFFF;fontSize=16;fontColor=#FFFFFF;movable=0;resizable=0;rotatable=0;deletable=0;editable=0;connectable=0;" vertex="1" parent="1">
                    <mxGeometry y="32" width="48" height="240" as="geometry"/>
                </mxCell>
                <mxCell id="66" value="" style="shape=tableRow;horizontal=0;startSize=0;swimlaneHead=0;swimlaneBody=0;top=0;left=0;bottom=0;right=0;collapsible=0;dropTarget=0;fillColor=none;points=[[0,0.5],[1,0.5]];portConstraint=eastwest;strokeColor=#FFFFFF;fontSize=16;fontColor=#000000;" vertex="1" parent="65">
                    <mxGeometry width="48" height="48" as="geometry"/>
                </mxCell>
                <mxCell id="67" value="&lt;font color=&quot;#ffffff&quot;&gt;PuP1&lt;/font&gt;" style="shape=partialRectangle;html=1;whiteSpace=wrap;connectable=0;fillColor=none;top=0;left=0;bottom=0;right=0;overflow=hidden;strokeColor=#FFFFFF;fontSize=16;fontColor=#000000;" vertex="1" parent="66">
                    <mxGeometry width="48" height="48" as="geometry">
                        <mxRectangle width="48" height="48" as="alternateBounds"/>
                    </mxGeometry>
                </mxCell>
                <mxCell id="70" value="" style="shape=tableRow;horizontal=0;startSize=0;swimlaneHead=0;swimlaneBody=0;top=0;left=0;bottom=0;right=0;collapsible=0;dropTarget=0;fillColor=none;points=[[0,0.5],[1,0.5]];portConstraint=eastwest;strokeColor=#FFFFFF;fontSize=16;fontColor=#000000;" vertex="1" parent="65">
                    <mxGeometry y="48" width="48" height="48" as="geometry"/>
                </mxCell>
                <mxCell id="71" value="&lt;span style=&quot;color: rgb(255, 255, 255);&quot;&gt;PuP2&lt;/span&gt;" style="shape=partialRectangle;html=1;whiteSpace=wrap;connectable=0;fillColor=none;top=0;left=0;bottom=0;right=0;overflow=hidden;strokeColor=#FFFFFF;fontSize=16;fontColor=#000000;" vertex="1" parent="70">
                    <mxGeometry width="48" height="48" as="geometry">
                        <mxRectangle width="48" height="48" as="alternateBounds"/>
                    </mxGeometry>
                </mxCell>
                <mxCell id="74" value="" style="shape=tableRow;horizontal=0;startSize=0;swimlaneHead=0;swimlaneBody=0;top=0;left=0;bottom=0;right=0;collapsible=0;dropTarget=0;fillColor=none;points=[[0,0.5],[1,0.5]];portConstraint=eastwest;strokeColor=#FFFFFF;fontSize=16;fontColor=#000000;" vertex="1" parent="65">
                    <mxGeometry y="96" width="48" height="48" as="geometry"/>
                </mxCell>
                <mxCell id="75" value="&lt;span style=&quot;color: rgb(255, 255, 255);&quot;&gt;PuP3&lt;/span&gt;" style="shape=partialRectangle;html=1;whiteSpace=wrap;connectable=0;fillColor=none;top=0;left=0;bottom=0;right=0;overflow=hidden;strokeColor=#FFFFFF;fontSize=16;fontColor=#000000;" vertex="1" parent="74">
                    <mxGeometry width="48" height="48" as="geometry">
                        <mxRectangle width="48" height="48" as="alternateBounds"/>
                    </mxGeometry>
                </mxCell>
                <mxCell id="78" style="shape=tableRow;horizontal=0;startSize=0;swimlaneHead=0;swimlaneBody=0;top=0;left=0;bottom=0;right=0;collapsible=0;dropTarget=0;fillColor=none;points=[[0,0.5],[1,0.5]];portConstraint=eastwest;strokeColor=#FFFFFF;fontSize=16;fontColor=#000000;" vertex="1" parent="65">
                    <mxGeometry y="144" width="48" height="48" as="geometry"/>
                </mxCell>
                <mxCell id="79" value="&lt;span style=&quot;color: rgb(255, 255, 255);&quot;&gt;PuP4&lt;/span&gt;" style="shape=partialRectangle;html=1;whiteSpace=wrap;connectable=0;fillColor=none;top=0;left=0;bottom=0;right=0;overflow=hidden;strokeColor=#FFFFFF;fontSize=16;fontColor=#000000;" vertex="1" parent="78">
                    <mxGeometry width="48" height="48" as="geometry">
                        <mxRectangle width="48" height="48" as="alternateBounds"/>
                    </mxGeometry>
                </mxCell>
                <mxCell id="80" style="shape=tableRow;horizontal=0;startSize=0;swimlaneHead=0;swimlaneBody=0;top=0;left=0;bottom=0;right=0;collapsible=0;dropTarget=0;fillColor=none;points=[[0,0.5],[1,0.5]];portConstraint=eastwest;strokeColor=#FFFFFF;fontSize=16;fontColor=#000000;" vertex="1" parent="65">
                    <mxGeometry y="192" width="48" height="48" as="geometry"/>
                </mxCell>
                <mxCell id="81" value="&lt;span style=&quot;color: rgb(255, 255, 255);&quot;&gt;PuP5&lt;/span&gt;" style="shape=partialRectangle;html=1;whiteSpace=wrap;connectable=0;fillColor=none;top=0;left=0;bottom=0;right=0;overflow=hidden;strokeColor=#FFFFFF;fontSize=16;fontColor=#000000;" vertex="1" parent="80">
                    <mxGeometry width="48" height="48" as="geometry">
                        <mxRectangle width="48" height="48" as="alternateBounds"/>
                    </mxGeometry>
                </mxCell>
                <mxCell id="82" value="Status Bar" style="rounded=0;whiteSpace=wrap;html=1;fontSize=14;movable=0;resizable=0;rotatable=0;deletable=0;editable=0;connectable=0;align=left;" vertex="1" parent="1">
                    <mxGeometry x="72" y="1056" width="1752" height="24" as="geometry"/>
                </mxCell>
                <mxCell id="83" value="" style="shape=table;html=1;whiteSpace=wrap;startSize=0;container=1;collapsible=0;childLayout=tableLayout;labelBackgroundColor=#18141D;strokeColor=#FFFFFF;fontSize=16;fontColor=#FFFFFF;movable=0;resizable=0;rotatable=0;deletable=0;editable=0;connectable=0;" vertex="1" parent="1">
                    <mxGeometry x="1824" y="1056" width="96" height="24" as="geometry"/>
                </mxCell>
                <mxCell id="84" value="" style="shape=tableRow;horizontal=0;startSize=0;swimlaneHead=0;swimlaneBody=0;top=0;left=0;bottom=0;right=0;collapsible=0;dropTarget=0;fillColor=none;points=[[0,0.5],[1,0.5]];portConstraint=eastwest;labelBackgroundColor=#18141D;strokeColor=#FFFFFF;fontSize=16;fontColor=#FFFFFF;" vertex="1" parent="83">
                    <mxGeometry width="96" height="24" as="geometry"/>
                </mxCell>
                <mxCell id="96" value="C" style="shape=partialRectangle;html=1;whiteSpace=wrap;connectable=0;fillColor=none;top=0;left=0;bottom=0;right=0;overflow=hidden;labelBackgroundColor=#18141D;strokeColor=#FFFFFF;fontSize=16;fontColor=#FFFFFF;" vertex="1" parent="84">
                    <mxGeometry width="24" height="24" as="geometry">
                        <mxRectangle width="24" height="24" as="alternateBounds"/>
                    </mxGeometry>
                </mxCell>
                <mxCell id="85" value="L" style="shape=partialRectangle;html=1;whiteSpace=wrap;connectable=0;fillColor=none;top=0;left=0;bottom=0;right=0;overflow=hidden;labelBackgroundColor=#18141D;strokeColor=#FFFFFF;fontSize=16;fontColor=#FFFFFF;" vertex="1" parent="84">
                    <mxGeometry x="24" width="24" height="24" as="geometry">
                        <mxRectangle width="24" height="24" as="alternateBounds"/>
                    </mxGeometry>
                </mxCell>
                <mxCell id="86" value="D" style="shape=partialRectangle;html=1;whiteSpace=wrap;connectable=0;fillColor=none;top=0;left=0;bottom=0;right=0;overflow=hidden;labelBackgroundColor=#18141D;strokeColor=#FFFFFF;fontSize=16;fontColor=#FFFFFF;" vertex="1" parent="84">
                    <mxGeometry x="48" width="24" height="24" as="geometry">
                        <mxRectangle width="24" height="24" as="alternateBounds"/>
                    </mxGeometry>
                </mxCell>
                <mxCell id="87" value="N" style="shape=partialRectangle;html=1;whiteSpace=wrap;connectable=0;fillColor=none;top=0;left=0;bottom=0;right=0;overflow=hidden;labelBackgroundColor=#18141D;strokeColor=#FFFFFF;fontSize=16;fontColor=#FFFFFF;" vertex="1" parent="84">
                    <mxGeometry x="72" width="24" height="24" as="geometry">
                        <mxRectangle width="24" height="24" as="alternateBounds"/>
                    </mxGeometry>
                </mxCell>
                <mxCell id="98" value="Vertical Container" style="swimlane;whiteSpace=wrap;html=1;labelBackgroundColor=#18141D;strokeColor=#FFFFFF;fontSize=16;fontColor=#FFFFFF;movable=0;resizable=0;rotatable=0;deletable=0;editable=0;connectable=0;" vertex="1" parent="1">
                    <mxGeometry x="1930" y="10" width="610" height="1070" as="geometry"/>
                </mxCell>
                <mxCell id="102" value="Table" style="shape=table;startSize=30;container=1;collapsible=0;childLayout=tableLayout;fontStyle=1;align=center;labelBackgroundColor=#18141D;strokeColor=#FFFFFF;fontSize=16;fontColor=#FFFFFF;movable=0;resizable=0;rotatable=0;deletable=0;editable=0;connectable=0;" vertex="1" parent="98">
                    <mxGeometry y="22" width="610" height="324" as="geometry"/>
                </mxCell>
                <mxCell id="103" value="" style="shape=tableRow;horizontal=0;startSize=0;swimlaneHead=0;swimlaneBody=0;top=0;left=0;bottom=0;right=0;collapsible=0;dropTarget=0;fillColor=none;points=[[0,0.5],[1,0.5]];portConstraint=eastwest;labelBackgroundColor=#18141D;strokeColor=#FFFFFF;fontSize=16;fontColor=#FFFFFF;" vertex="1" parent="102">
                    <mxGeometry y="30" width="610" height="42" as="geometry"/>
                </mxCell>
                <mxCell id="104" value="C" style="shape=partialRectangle;html=1;whiteSpace=wrap;connectable=0;fillColor=none;top=0;left=0;bottom=0;right=0;overflow=hidden;labelBackgroundColor=#18141D;strokeColor=#FFFFFF;fontSize=16;fontColor=#FFFFFF;" vertex="1" parent="103">
                    <mxGeometry width="110" height="42" as="geometry">
                        <mxRectangle width="110" height="42" as="alternateBounds"/>
                    </mxGeometry>
                </mxCell>
                <mxCell id="105" value="Comparison Basket" style="shape=partialRectangle;html=1;whiteSpace=wrap;connectable=0;fillColor=none;top=0;left=0;bottom=0;right=0;overflow=hidden;labelBackgroundColor=#18141D;strokeColor=#FFFFFF;fontSize=16;fontColor=#FFFFFF;" vertex="1" parent="103">
                    <mxGeometry x="110" width="500" height="42" as="geometry">
                        <mxRectangle width="500" height="42" as="alternateBounds"/>
                    </mxGeometry>
                </mxCell>
                <mxCell id="107" value="" style="shape=tableRow;horizontal=0;startSize=0;swimlaneHead=0;swimlaneBody=0;top=0;left=0;bottom=0;right=0;collapsible=0;dropTarget=0;fillColor=none;points=[[0,0.5],[1,0.5]];portConstraint=eastwest;labelBackgroundColor=#18141D;strokeColor=#FFFFFF;fontSize=16;fontColor=#FFFFFF;" vertex="1" parent="102">
                    <mxGeometry y="72" width="610" height="42" as="geometry"/>
                </mxCell>
                <mxCell id="108" value="L" style="shape=partialRectangle;html=1;whiteSpace=wrap;connectable=0;fillColor=none;top=0;left=0;bottom=0;right=0;overflow=hidden;labelBackgroundColor=#18141D;strokeColor=#FFFFFF;fontSize=16;fontColor=#FFFFFF;" vertex="1" parent="107">
                    <mxGeometry width="110" height="42" as="geometry">
                        <mxRectangle width="110" height="42" as="alternateBounds"/>
                    </mxGeometry>
                </mxCell>
                <mxCell id="109" value="Language" style="shape=partialRectangle;html=1;whiteSpace=wrap;connectable=0;fillColor=none;top=0;left=0;bottom=0;right=0;overflow=hidden;labelBackgroundColor=#18141D;strokeColor=#FFFFFF;fontSize=16;fontColor=#FFFFFF;" vertex="1" parent="107">
                    <mxGeometry x="110" width="500" height="42" as="geometry">
                        <mxRectangle width="500" height="42" as="alternateBounds"/>
                    </mxGeometry>
                </mxCell>
                <mxCell id="111" value="" style="shape=tableRow;horizontal=0;startSize=0;swimlaneHead=0;swimlaneBody=0;top=0;left=0;bottom=0;right=0;collapsible=0;dropTarget=0;fillColor=none;points=[[0,0.5],[1,0.5]];portConstraint=eastwest;labelBackgroundColor=#18141D;strokeColor=#FFFFFF;fontSize=16;fontColor=#FFFFFF;" vertex="1" parent="102">
                    <mxGeometry y="114" width="610" height="42" as="geometry"/>
                </mxCell>
                <mxCell id="112" value="D" style="shape=partialRectangle;html=1;whiteSpace=wrap;connectable=0;fillColor=none;top=0;left=0;bottom=0;right=0;overflow=hidden;labelBackgroundColor=#18141D;strokeColor=#FFFFFF;fontSize=16;fontColor=#FFFFFF;" vertex="1" parent="111">
                    <mxGeometry width="110" height="42" as="geometry">
                        <mxRectangle width="110" height="42" as="alternateBounds"/>
                    </mxGeometry>
                </mxCell>
                <mxCell id="113" value="Dark / Light Mode" style="shape=partialRectangle;html=1;whiteSpace=wrap;connectable=0;fillColor=none;top=0;left=0;bottom=0;right=0;overflow=hidden;labelBackgroundColor=#18141D;strokeColor=#FFFFFF;fontSize=16;fontColor=#FFFFFF;" vertex="1" parent="111">
                    <mxGeometry x="110" width="500" height="42" as="geometry">
                        <mxRectangle width="500" height="42" as="alternateBounds"/>
                    </mxGeometry>
                </mxCell>
                <mxCell id="115" style="shape=tableRow;horizontal=0;startSize=0;swimlaneHead=0;swimlaneBody=0;top=0;left=0;bottom=0;right=0;collapsible=0;dropTarget=0;fillColor=none;points=[[0,0.5],[1,0.5]];portConstraint=eastwest;labelBackgroundColor=#18141D;strokeColor=#FFFFFF;fontSize=16;fontColor=#FFFFFF;" vertex="1" parent="102">
                    <mxGeometry y="156" width="610" height="42" as="geometry"/>
                </mxCell>
                <mxCell id="116" value="N" style="shape=partialRectangle;html=1;whiteSpace=wrap;connectable=0;fillColor=none;top=0;left=0;bottom=0;right=0;overflow=hidden;labelBackgroundColor=#18141D;strokeColor=#FFFFFF;fontSize=16;fontColor=#FFFFFF;" vertex="1" parent="115">
                    <mxGeometry width="110" height="42" as="geometry">
                        <mxRectangle width="110" height="42" as="alternateBounds"/>
                    </mxGeometry>
                </mxCell>
                <mxCell id="117" value="Notification" style="shape=partialRectangle;html=1;whiteSpace=wrap;connectable=0;fillColor=none;top=0;left=0;bottom=0;right=0;overflow=hidden;labelBackgroundColor=#18141D;strokeColor=#FFFFFF;fontSize=16;fontColor=#FFFFFF;" vertex="1" parent="115">
                    <mxGeometry x="110" width="500" height="42" as="geometry">
                        <mxRectangle width="500" height="42" as="alternateBounds"/>
                    </mxGeometry>
                </mxCell>
                <mxCell id="128" style="shape=tableRow;horizontal=0;startSize=0;swimlaneHead=0;swimlaneBody=0;top=0;left=0;bottom=0;right=0;collapsible=0;dropTarget=0;fillColor=none;points=[[0,0.5],[1,0.5]];portConstraint=eastwest;labelBackgroundColor=#18141D;strokeColor=#FFFFFF;fontSize=16;fontColor=#FFFFFF;" vertex="1" parent="102">
                    <mxGeometry y="198" width="610" height="42" as="geometry"/>
                </mxCell>
                <mxCell id="129" value="G" style="shape=partialRectangle;html=1;whiteSpace=wrap;connectable=0;fillColor=none;top=0;left=0;bottom=0;right=0;overflow=hidden;labelBackgroundColor=#18141D;strokeColor=#FFFFFF;fontSize=16;fontColor=#FFFFFF;" vertex="1" parent="128">
                    <mxGeometry width="110" height="42" as="geometry">
                        <mxRectangle width="110" height="42" as="alternateBounds"/>
                    </mxGeometry>
                </mxCell>
                <mxCell id="130" value="Git Link" style="shape=partialRectangle;html=1;whiteSpace=wrap;connectable=0;fillColor=none;top=0;left=0;bottom=0;right=0;overflow=hidden;labelBackgroundColor=#18141D;strokeColor=#FFFFFF;fontSize=16;fontColor=#FFFFFF;" vertex="1" parent="128">
                    <mxGeometry x="110" width="500" height="42" as="geometry">
                        <mxRectangle width="500" height="42" as="alternateBounds"/>
                    </mxGeometry>
                </mxCell>
                <mxCell id="131" style="shape=tableRow;horizontal=0;startSize=0;swimlaneHead=0;swimlaneBody=0;top=0;left=0;bottom=0;right=0;collapsible=0;dropTarget=0;fillColor=none;points=[[0,0.5],[1,0.5]];portConstraint=eastwest;labelBackgroundColor=#18141D;strokeColor=#FFFFFF;fontSize=16;fontColor=#FFFFFF;" vertex="1" parent="102">
                    <mxGeometry y="240" width="610" height="42" as="geometry"/>
                </mxCell>
                <mxCell id="132" value="S" style="shape=partialRectangle;html=1;whiteSpace=wrap;connectable=0;fillColor=none;top=0;left=0;bottom=0;right=0;overflow=hidden;labelBackgroundColor=#18141D;strokeColor=#FFFFFF;fontSize=16;fontColor=#FFFFFF;" vertex="1" parent="131">
                    <mxGeometry width="110" height="42" as="geometry">
                        <mxRectangle width="110" height="42" as="alternateBounds"/>
                    </mxGeometry>
                </mxCell>
                <mxCell id="133" value="Size" style="shape=partialRectangle;html=1;whiteSpace=wrap;connectable=0;fillColor=none;top=0;left=0;bottom=0;right=0;overflow=hidden;labelBackgroundColor=#18141D;strokeColor=#FFFFFF;fontSize=16;fontColor=#FFFFFF;" vertex="1" parent="131">
                    <mxGeometry x="110" width="500" height="42" as="geometry">
                        <mxRectangle width="500" height="42" as="alternateBounds"/>
                    </mxGeometry>
                </mxCell>
                <mxCell id="134" style="shape=tableRow;horizontal=0;startSize=0;swimlaneHead=0;swimlaneBody=0;top=0;left=0;bottom=0;right=0;collapsible=0;dropTarget=0;fillColor=none;points=[[0,0.5],[1,0.5]];portConstraint=eastwest;labelBackgroundColor=#18141D;strokeColor=#FFFFFF;fontSize=16;fontColor=#FFFFFF;" vertex="1" parent="102">
                    <mxGeometry y="282" width="610" height="42" as="geometry"/>
                </mxCell>
                <mxCell id="135" value="Z" style="shape=partialRectangle;html=1;whiteSpace=wrap;connectable=0;fillColor=none;top=0;left=0;bottom=0;right=0;overflow=hidden;labelBackgroundColor=#18141D;strokeColor=#FFFFFF;fontSize=16;fontColor=#FFFFFF;" vertex="1" parent="134">
                    <mxGeometry width="110" height="42" as="geometry">
                        <mxRectangle width="110" height="42" as="alternateBounds"/>
                    </mxGeometry>
                </mxCell>
                <mxCell id="136" value="Encrypted" style="shape=partialRectangle;html=1;whiteSpace=wrap;connectable=0;fillColor=none;top=0;left=0;bottom=0;right=0;overflow=hidden;labelBackgroundColor=#18141D;strokeColor=#FFFFFF;fontSize=16;fontColor=#FFFFFF;" vertex="1" parent="134">
                    <mxGeometry x="110" width="500" height="42" as="geometry">
                        <mxRectangle width="500" height="42" as="alternateBounds"/>
                    </mxGeometry>
                </mxCell>
                <mxCell id="118" value="" style="shape=table;html=1;whiteSpace=wrap;startSize=0;container=1;collapsible=0;childLayout=tableLayout;labelBackgroundColor=#18141D;strokeColor=#FFFFFF;fontSize=16;fontColor=#FFFFFF;movable=0;resizable=0;rotatable=0;deletable=0;editable=0;connectable=0;" vertex="1" parent="1">
                    <mxGeometry y="1056" width="72" height="24" as="geometry"/>
                </mxCell>
                <mxCell id="119" value="" style="shape=tableRow;horizontal=0;startSize=0;swimlaneHead=0;swimlaneBody=0;top=0;left=0;bottom=0;right=0;collapsible=0;dropTarget=0;fillColor=none;points=[[0,0.5],[1,0.5]];portConstraint=eastwest;labelBackgroundColor=#18141D;strokeColor=#FFFFFF;fontSize=16;fontColor=#FFFFFF;" vertex="1" parent="118">
                    <mxGeometry width="72" height="24" as="geometry"/>
                </mxCell>
                <mxCell id="120" value="G" style="shape=partialRectangle;html=1;whiteSpace=wrap;connectable=0;fillColor=none;top=0;left=0;bottom=0;right=0;overflow=hidden;labelBackgroundColor=#18141D;strokeColor=#FFFFFF;fontSize=16;fontColor=#FFFFFF;" vertex="1" parent="119">
                    <mxGeometry width="24" height="24" as="geometry">
                        <mxRectangle width="24" height="24" as="alternateBounds"/>
                    </mxGeometry>
                </mxCell>
                <mxCell id="121" value="S" style="shape=partialRectangle;html=1;whiteSpace=wrap;connectable=0;fillColor=none;top=0;left=0;bottom=0;right=0;overflow=hidden;labelBackgroundColor=#18141D;strokeColor=#FFFFFF;fontSize=16;fontColor=#FFFFFF;" vertex="1" parent="119">
                    <mxGeometry x="24" width="24" height="24" as="geometry">
                        <mxRectangle width="24" height="24" as="alternateBounds"/>
                    </mxGeometry>
                </mxCell>
                <mxCell id="122" value="Z" style="shape=partialRectangle;html=1;whiteSpace=wrap;connectable=0;fillColor=none;top=0;left=0;bottom=0;right=0;overflow=hidden;labelBackgroundColor=#18141D;strokeColor=#FFFFFF;fontSize=16;fontColor=#FFFFFF;" vertex="1" parent="119">
                    <mxGeometry x="48" width="24" height="24" as="geometry">
                        <mxRectangle width="24" height="24" as="alternateBounds"/>
                    </mxGeometry>
                </mxCell>
            </root>
        </mxGraphModel>
    </diagram>
</mxfile>